<?xml version="1.0" encoding="UTF-8" standalone="no"?>
<!-- Created with Inkscape (http://www.inkscape.org/) -->

<svg
   xmlns:dc="http://purl.org/dc/elements/1.1/"
   xmlns:cc="http://creativecommons.org/ns#"
   xmlns:rdf="http://www.w3.org/1999/02/22-rdf-syntax-ns#"
   xmlns:svg="http://www.w3.org/2000/svg"
   xmlns="http://www.w3.org/2000/svg"
   xmlns:xlink="http://www.w3.org/1999/xlink"
   xmlns:sodipodi="http://sodipodi.sourceforge.net/DTD/sodipodi-0.dtd"
   xmlns:inkscape="http://www.inkscape.org/namespaces/inkscape"
   width="678.70905"
   height="279.60928"
   id="svg2"
   version="1.1"
   inkscape:version="0.47 r22583"
   sodipodi:docname="volcano.svg">
  <defs
     id="defs4">
    <linearGradient
       id="linearGradient3931">
      <stop
         style="stop-color:#ffbf00;stop-opacity:1;"
         offset="0"
         id="stop3933" />
      <stop
         style="stop-color:#955c00;stop-opacity:1;"
         offset="1"
         id="stop3935" />
    </linearGradient>
    <inkscape:perspective
       sodipodi:type="inkscape:persp3d"
       inkscape:vp_x="0 : 526.18109 : 1"
       inkscape:vp_y="0 : 1000 : 0"
       inkscape:vp_z="744.09448 : 526.18109 : 1"
       inkscape:persp3d-origin="372.04724 : 350.78739 : 1"
       id="perspective10" />
    <filter
       inkscape:collect="always"
       id="filter3925"
       color-interpolation-filters="sRGB">
      <feGaussianBlur
         inkscape:collect="always"
         stdDeviation="3.7661089"
         id="feGaussianBlur3927" />
    </filter>
    <linearGradient
       inkscape:collect="always"
       xlink:href="#linearGradient3931"
       id="linearGradient3937"
       x1="321.99286"
       y1="-3.6829255"
       x2="321.99286"
       y2="32.477505"
       gradientUnits="userSpaceOnUse" />
    <linearGradient
       inkscape:collect="always"
       xlink:href="#linearGradient3931"
       id="linearGradient3987"
       gradientUnits="userSpaceOnUse"
       x1="321.99286"
       y1="-3.6829255"
       x2="321.99286"
       y2="32.477505" />
  </defs>
  <sodipodi:namedview
     id="base"
     pagecolor="#ffffff"
     bordercolor="#666666"
     borderopacity="1.0"
     inkscape:pageopacity="0.0"
     inkscape:pageshadow="2"
     inkscape:zoom="1.4129766"
     inkscape:cx="339.35452"
     inkscape:cy="139.80464"
     inkscape:document-units="px"
     inkscape:current-layer="layer1"
     showgrid="false"
     inkscape:window-width="1440"
     inkscape:window-height="852"
     inkscape:window-x="-4"
     inkscape:window-y="-3"
     inkscape:window-maximized="1" />
  <metadata
     id="metadata7">
    <rdf:RDF>
      <cc:Work
         rdf:about="">
        <dc:format>image/svg+xml</dc:format>
        <dc:type
           rdf:resource="http://purl.org/dc/dcmitype/StillImage" />
        <dc:title></dc:title>
      </cc:Work>
    </rdf:RDF>
  </metadata>
  <g
     inkscape:label="Layer 1"
     inkscape:groupmode="layer"
     id="layer1"
     transform="translate(-32.213446,48.880749)">
    <g
       id="g3953">
      <path
         transform="translate(32.213446,93.939431)"
         sodipodi:nodetypes="cssssc"
         id="path3683"
         d="m 300.97099,6.0020045 c 0,0 7.66333,3.0792615 11.45359,3.8520854 3.81283,0.7774261 7.78153,1.5735921 11.6307,1.0026461 1.78033,-0.264075 3.2142,-1.9524255 5.01323,-2.0052924 1.90157,-0.05588 3.5119,1.8047634 5.41429,1.8047634 6.12991,0 17.6886,-5.9366279 17.6886,-5.9366279"
         style="fill:none;stroke:#000000;stroke-width:1px;stroke-linecap:butt;stroke-linejoin:miter;stroke-opacity:1" />
      <path
         transform="translate(32.213446,93.939431)"
         sodipodi:nodetypes="cssssssssssssssssssssssc"
         id="path3685"
         d="m 315.55967,19.286969 c -0.38284,-0.238078 -1.76601,-1.51665 -3.14783,-2.841271 -3.19345,-3.061278 -3.9155,-3.488624 -5.78981,-3.842951 -0.79972,-0.151184 -2.28498,-0.84769 -2.48531,-1.028984 -0.31714,-0.287005 -2.1816,-4.4441613 -2.1816,-4.7221214 0,-0.056637 2.00094,0.4974553 3.18657,0.9348554 6.60552,2.436895 13.8551,3.691915 18.11995,3.251897 1.40681,-0.145145 2.05447,-0.388067 3.57608,-1.1522654 1.09216,-0.5485193 2.46312,-0.9173859 2.86856,-0.9173859 0.37988,0 1.46198,0.491666 2.46049,0.9634673 1.63213,0.771191 2.21333,0.779582 3.60085,0.758223 2.94702,-0.04537 6.37442,-1.2008342 12.10706,-3.7242341 1.47514,-0.6493312 3.63854,-1.5582218 3.69581,-1.5009505 0.11668,0.1166855 -2.50494,7.6497056 -3.10601,8.8278926 -0.21239,0.416311 -0.94472,1.181406 -1.03449,1.181406 -0.0898,0 -1.04347,-0.885892 -1.52642,-1.598073 -1.29867,-1.915079 -0.97817,-1.692495 -4.53413,-1.514732 -3.48955,0.174443 -3.34846,-0.04413 -3.83688,2.118664 -0.38013,1.683277 -0.87429,2.015398 -1.67816,2.015398 -0.33446,0 -1.85186,0.566755 -3.07555,0.962995 -2.98446,0.966394 -4.10038,0.841924 -4.89453,0.254784 -0.33099,-0.244711 -1.07029,-0.723697 -1.6429,-0.990299 -2.02129,-0.941094 -3.41052,-0.409887 -6.54649,1.696832 -2.03387,1.366337 -3.18008,1.460848 -4.13526,0.866853 z"
         style="color:#000000;fill:#0d1c08;fill-opacity:1;fill-rule:nonzero;stroke:none;stroke-width:0.5;marker:none;visibility:visible;display:inline;overflow:visible;enable-background:accumulate" />
      <g
         transform="matrix(1.1456043,0,0,1,-41.652299,0)"
         style="filter:url(#filter3925)"
         id="g3888">
        <path
           style="fill:#84827d;fill-opacity:1;stroke:#484849;stroke-width:0.93429214px;stroke-linecap:butt;stroke-linejoin:miter;stroke-opacity:1"
           d="m 532.30821,-18.950126 c 10.13284,-11.429634 31.45409,-7.350977 37.65487,6.390317 4.40565,9.2065392 -0.23463,23.556618 -11.50912,23.524452 -9.81655,-1.2247633 -18.72731,-10.92309308 -20.00215,-20.8568566 -0.0898,-1.3557194 -0.11575,-2.7150454 -0.22618,-4.0694704 m -84.84169,-8.694134 c 6.18742,-9.736399 17.55565,-19.868954 29.67278,-15.635086 8.39589,1.903814 11.36723,20.036222 17.88266,17.273563 5.60762,-11.610469 19.90038,-12.616861 29.89567,-6.956599 11.24932,3.013356 12.08086,18.7082282 -0.12558,20.7091453 -13.76982,4.6179265 -19.81229,-11.2781163 -28.16725,-18.5078933 -5.80373,-3.888302 -13.07009,-4.923062 -19.84933,-3.996502 m -67.10206,4.74224 c -12.00763,-5.010499 -25.34603,10.990402 -16.95337,21.8735458 l 0.84902,1.6688697 0.67858,1.74962307 M 464.18197,-20.284698 c -9.75607,-5.593709 -22.48188,-12.466625 -33.16295,-5.235083 -13.18978,5.482804 -6.53328,24.438011 6.85123,22.9433282 8.18748,2.02282858 20.80983,1.2210237 22.34969,-9.4075072 -0.62341,-13.818064 -16.19455,-18.628202 -25.19609,-26.034477 -11.02609,-4.864388 -24.19716,4.405965 -25.66874,15.950449 0.95426,10.463621 12.89389,15.1680962 21.78353,12.5011974 3.02831,-0.3472524 6.08335,-0.7383794 9.1334,-0.4430114 m 47.81986,-10.274896 c -8.19341,-5.924762 -31.80562,-6.37521 -26.39661,8.604653 6.15241,9.2610374 20.39312,13.1143479 29.82675,7.0189162 2.80545,-2.0753005 4.36346,-5.8048782 3.51145,-9.3005552 M 478.83644,1.8458414 C 467.00847,-4.5563265 452.6623,13.587291 461.70356,23.937753 c 9.3843,7.098108 22.847,6.631115 32.55236,0.461749 7.75102,-9.587728 5.82263,-25.5741266 -5.79104,-30.7384508 -8.74883,-8.2575962 -27.04572,2.4125439 -18.0412,13.5698994 8.66911,11.9917094 24.39132,13.6030444 37.8347,13.2801534 9.75424,1.402472 26.18918,-2.100632 22.8615,-15.6697228 -2.88904,-10.5789527 -13.05484,-17.3265522 -22.68727,-20.4932292 -13.59622,-5.505655 -23.66264,14.6046681 -9.01742,20.5551926 12.37964,6.4428644 26.51656,2.1696995 39.51829,0.5286867 6.93598,-1.8836033 15.75034,-3.2060497 20.0259,-9.5333941 0.31092,-1.6015031 -0.142,-3.1649777 -0.60439,-4.6645689 M 412.50567,19.234117 c 10.6125,-5.83677 9.90306,-22.8350379 -1.95206,-26.4573426 -8.17451,-6.0625514 -23.5879,-1.8443828 -22.84559,10.0442453 0.72584,9.7896583 5.65157,20.1658523 14.77091,24.3168603 M 424.84629,6.5880978 c 3.76311,11.9113262 16.9928,16.9795832 28.25532,17.0128122 12.08054,-5.235327 3.84166,-21.513751 -4.32823,-26.4690857 -7.53651,-6.3568063 -22.20171,-4.2510677 -26.68461,4.8519878 -7.06838,-0.7645713 -7.02825,11.3285139 -4.95537,15.6695529 m 6.09444,45.414239 c 11.53594,5.049525 26.47014,0.04281 32.02706,-11.707224 6.47291,-8.694105 10.46748,-22.930158 1.58533,-31.438939 -5.6203,-5.746559 -15.71211,-12.8570609 -23.13046,-6.142219 m -7.32091,20.472043 c 7.64298,-5.201361 22.41366,-13.544468 25.10658,1.244207 6.19729,11.15767 -1.83685,25.229564 -14.75424,20.557039 -7.14305,-1.659484 -12.45986,-7.891415 -14.98007,-14.687858 M 405.56408,20.81487 c -11.69257,-3.17005 -27.42112,12.042302 -15.70464,22.139811 7.36183,7.678773 31.97695,5.597605 25.9683,-8.770179 -3.61408,-8.619222 -27.35779,-12.060048 -21.69153,1.325727 8.53315,7.882367 18.78556,13.360262 26.29057,22.57162 5.69061,4.44116 8.60772,-1.279298 8.08333,-6.536918 -1.50679,-3.889455 -4.88826,-7.514026 -7.05833,-11.248303 m -50.59566,72.201882 c -3.77144,6.68029 -13.33201,3.37935 -16.19705,-2.37113 m 2.31387,-9.48451 c -2.36776,12.52947 21.25655,9.75128 18.19481,-1.430215 -3.80632,-9.676078 -15.18825,-6.33774 -21.59532,-2.163421 -8.40248,5.672586 2.69838,22.912226 9.06195,12.769966 0.16962,-0.4242 0.33924,-0.84838 0.50885,-1.27257 m 21.59608,-67.972355 c -11.83292,4.522142 -9.78333,26.119574 3.33172,26.9857 13.47272,2.911765 19.8919,-17.339362 10.23356,-25.489662 -4.82088,-3.50414 -15.3637,-2.793774 -7.19706,-9.763142 l 0.0995,-0.965741 -0.41066,-1.006596 m -2.97186,22.095084 c 5.94874,-7.567927 27.6598,-9.449726 25.4694,3.880927 -2.67207,5.089758 -9.62432,6.952234 -14.67137,4.813217 m 11.65783,14.615475 c 9.8833,9.791775 23.81923,-10.119014 12.26926,-17.002869 -8.59245,-10.084069 -18.27626,11.789526 -5.41617,11.871902 m -37.02183,-5.532633 c -10.66814,6.265907 -5.84727,25.427641 6.36309,25.893365 11.71933,0.678721 25.72984,-6.19508 27.65289,-19.124839 -0.70599,-11.661645 -20.4969,-17.256156 -25.95734,-6.636649 -2.79845,8.417735 6.02753,15.902823 13.53742,16.466024 m -46.81708,15.748486 c -3.93083,-13.443413 14.95729,-25.984853 24.96267,-16.177669 9.97952,11.17478 -11.54968,27.294315 -15.19329,10.314611 -5.48729,-9.763345 -0.98047,-24.349525 11.52181,-22.846941 3.61483,-0.331245 7.24652,-0.355083 10.87142,-0.474824"
           id="path3742" />
        <path
           style="color:#000000;fill:#84827d;fill-opacity:1;fill-rule:nonzero;stroke:none;stroke-width:0.5;marker:none;visibility:visible;display:inline;overflow:visible;enable-background:accumulate"
           d="m 397.73505,59.041521 c -3.75757,-1.035323 -13.32246,-7.036152 -4.93771,-9.322796 7.71049,-6.452374 12.03394,3.050431 8.12402,9.394446 l -1.0366,0.05356 -2.14967,-0.125216 -4e-5,1e-6 z"
           id="path3841" />
        <path
           style="color:#000000;fill:#84827d;fill-opacity:1;fill-rule:nonzero;stroke:none;stroke-width:0.5;marker:none;visibility:visible;display:inline;overflow:visible;enable-background:accumulate"
           d="m 421.8406,39.981869 c -5.08645,-5.213777 -9.42055,-11.169673 -14.11856,-16.76485 4.80696,-4.763087 10.66634,-4.408674 13.32376,-10.920252 2.75747,-6.07201 4.40822,-3.9994269 6.88626,1.47508 6.08979,3.021479 4.20692,8.167216 2.76657,13.54912 -0.10658,5.972408 -6.38965,7.649041 -8.85803,12.660902 z"
           id="path3843" />
        <path
           style="color:#000000;fill:#84827d;fill-opacity:1;fill-rule:nonzero;stroke:none;stroke-width:0.5;marker:none;visibility:visible;display:inline;overflow:visible;enable-background:accumulate"
           d="m 438.42571,55.62493 c -5.10807,-0.566497 -12.90226,-5.245864 -11.07147,-11.323455 1.04985,-3.603992 1.13038,-7.93224 2.77087,-11.094927 5.55117,-3.40625 15.17484,-10.134443 19.15338,-1.276631 3.46376,7.10637 6.69987,21.887137 -4.32443,23.412015 -2.15944,0.176351 -4.37057,0.816987 -6.52835,0.282998 z"
           id="path3845" />
        <path
           style="color:#000000;fill:#84827d;fill-opacity:1;fill-rule:nonzero;stroke:none;stroke-width:0.5;marker:none;visibility:visible;display:inline;overflow:visible;enable-background:accumulate"
           d="m 459.11559,9.8813618 c -0.18047,-6.135258 -12.70734,-11.742119 -2.66176,-14.0214912 3.92504,-3.1575792 3.95035,-10.2696756 8.14416,-3.0898173 6.82508,2.6637433 2.58158,10.2429148 -2.15856,12.8477522 -1.26053,0.6714212 -2.40005,4.7867555 -3.32384,4.2635563 z"
           id="path3847" />
        <path
           style="color:#000000;fill:#84827d;fill-opacity:1;fill-rule:nonzero;stroke:none;stroke-width:0.5;marker:none;visibility:visible;display:inline;overflow:visible;enable-background:accumulate"
           d="m 491.72531,-17.162049 c -6.20015,-7.305281 -17.6455,-9.356722 -26.34841,-6.103298 -1.45316,3.383886 -9.38388,-1.485802 -3.62664,-1.277801 9.78516,-2.054725 19.46229,-6.017741 29.57961,-4.55575 2.67547,3.299425 7.49065,15.285902 10.70228,7.674166 1.70715,-7.56414 12.80769,9.860837 3.25582,4.767681 -5.29867,-1.411849 -9.92035,5.350965 -13.56266,-0.504998 z"
           id="path3849" />
        <path
           style="color:#000000;fill:#84827d;fill-opacity:1;fill-rule:nonzero;stroke:none;stroke-width:0.5;marker:none;visibility:visible;display:inline;overflow:visible;enable-background:accumulate"
           d="m 526.45098,-5.2223001 c 2.97201,-0.5461259 16.0299,-8.4459049 10.08761,-0.8002242 -3.24461,0.070981 -7.07556,1.8318225 -10.08761,0.8002242 z"
           id="path3851" />
        <path
           style="color:#000000;fill:#84827d;fill-opacity:1;fill-rule:nonzero;stroke:none;stroke-width:0.5;marker:none;visibility:visible;display:inline;overflow:visible;enable-background:accumulate"
           d="m 545.35457,2.4678495 c -3.7664,-3.8787955 -8.67295,-10.6755945 0.52795,-9.4283979 4.89922,-1.6664839 17.43379,-2.7389329 10.35846,5.1160985 -3.27573,1.60040824 -7.34838,4.6717394 -10.88641,4.3122994 z"
           id="path3853" />
        <path
           style="color:#000000;fill:#84827d;fill-opacity:1;fill-rule:nonzero;stroke:none;stroke-width:0.5;marker:none;visibility:visible;display:inline;overflow:visible;enable-background:accumulate"
           d="m 419.5984,-0.29739485 c -2.32107,-7.03239665 -17.72225,-7.22543155 -9.63672,-15.23130315 3.41494,3.545674 12.50068,6.5900453 17.5425,10.2483475 -0.40391,-0.00713 -6.72614,9.2264891 -7.90578,4.98295565 z"
           id="path3857" />
        <path
           style="color:#000000;fill:#84827d;fill-opacity:1;fill-rule:nonzero;stroke:none;stroke-width:0.5;marker:none;visibility:visible;display:inline;overflow:visible;enable-background:accumulate"
           d="m 374.94546,75.352754 c -3.08561,-8.506922 16.57215,-7.94536 6.40244,-2.708734 -1.63856,0.604902 -7.35305,8.047648 -6.40244,2.708734 z"
           id="path3861" />
        <path
           style="color:#000000;fill:#84827d;fill-opacity:1;fill-rule:nonzero;stroke:none;stroke-width:0.5;marker:none;visibility:visible;display:inline;overflow:visible;enable-background:accumulate"
           d="m 380.25731,87.803086 c -4.61251,-2.436794 -6.96816,-13.538137 -0.36238,-5.132522 0.86216,0.659686 2.84759,7.888698 0.36238,5.132522 z"
           id="path3863" />
        <path
           style="color:#000000;fill:#84827d;fill-opacity:1;fill-rule:nonzero;stroke:none;stroke-width:0.5;marker:none;visibility:visible;display:inline;overflow:visible;enable-background:accumulate"
           d="m 371.3427,98.434218 c -8.20695,-3.37055 -2.32252,-7.415245 1.91243,-1.066832 2.15942,1.652904 -1.5305,1.263248 -1.91243,1.066832 z"
           id="path3865" />
        <path
           style="color:#000000;fill:#84827d;fill-opacity:1;fill-rule:nonzero;stroke:none;stroke-width:0.5;marker:none;visibility:visible;display:inline;overflow:visible;enable-background:accumulate"
           d="m 409.15837,62.389089 c -2.43626,-1.399008 4.84583,-3.603769 1.09648,0.642298 l -1.09648,-0.642298 0,0 z"
           id="path3867" />
        <path
           style="color:#000000;fill:#84827d;fill-opacity:1;fill-rule:nonzero;stroke:none;stroke-width:0.5;marker:none;visibility:visible;display:inline;overflow:visible;enable-background:accumulate"
           d="m 414.11508,56.201259 c -0.0567,-4.991064 4.91898,0.87253 0,0 z"
           id="path3869" />
        <path
           style="color:#000000;fill:#84827d;fill-opacity:1;fill-rule:nonzero;stroke:none;stroke-width:0.5;marker:none;visibility:visible;display:inline;overflow:visible;enable-background:accumulate"
           d="m 360.46722,92.644172 c 4.95907,-5.975203 3.9431,1.683972 0,0 z"
           id="path3871" />
      </g>
      <path
         sodipodi:nodetypes="ccssssssscc"
         id="path2818"
         d="M 32.713446,229.96136 C 153.16993,195.81895 231.02286,171.03385 330.17757,98.346795 c 4.325,-0.729713 4.67504,8.637255 8.2785,8.207735 3.60346,-0.42952 8.20706,8.10875 11.0857,7.30403 2.67377,-0.74746 5.83055,-5.78622 10.3911,-2.02535 1.90051,1.56725 6.57392,-1.34071 8.61866,-1.23966 2.04475,0.10105 0.93103,-4.36027 2.65817,-4.2057 1.72714,0.15457 3.57769,-0.25519 5.0882,-0.10877 1.51052,0.14642 2.03825,3.24244 3.43313,3.31905 1.39488,0.0766 4.60311,-12.718017 5.98333,-12.772887 141.86669,87.430297 198.67259,110.579967 324.70812,133.403297"
         style="fill:#153708;fill-opacity:1;stroke:#000000;stroke-width:1px;stroke-linecap:butt;stroke-linejoin:miter;stroke-opacity:1" />
      <path
         sodipodi:nodetypes="cc"
         id="path3604"
         d="m 302.60317,133.82207 c 10.07568,-5.30322 20.37667,-9.93047 28.61496,-20.74585"
         style="fill:none;stroke:#151300;stroke-width:1px;stroke-linecap:butt;stroke-linejoin:miter;stroke-opacity:1" />
      <path
         sodipodi:nodetypes="cc"
         id="path3606"
         d="m 371.27907,138.11431 c -1.75599,-4.44392 -4.05374,-8.34608 -2.14613,-16.4536"
         style="fill:none;stroke:#151300;stroke-width:1px;stroke-linecap:butt;stroke-linejoin:miter;stroke-opacity:1" />
      <path
         sodipodi:nodetypes="cc"
         id="path3608"
         d="m 383.44042,116.65309 c 21.17595,8.18003 24.36893,21.21092 36.48407,20.74585"
         style="fill:none;stroke:#151300;stroke-width:1px;stroke-linecap:butt;stroke-linejoin:miter;stroke-opacity:1" />
      <path
         sodipodi:nodetypes="cc"
         id="path3610"
         d="m 217.47367,192.48273 c 17.90903,-18.00713 41.80203,-20.01206 49.3608,-32.9072"
         style="fill:none;stroke:#1c1400;stroke-width:1px;stroke-linecap:butt;stroke-linejoin:miter;stroke-opacity:1" />
      <path
         sodipodi:nodetypes="cc"
         id="path3612"
         d="m 288.29569,193.1981 c 3.11537,1.98477 20.25341,-18.20041 19.3151,-22.89196"
         style="fill:none;stroke:#1c1400;stroke-width:1px;stroke-linecap:butt;stroke-linejoin:miter;stroke-opacity:1" />
      <path
         sodipodi:nodetypes="cc"
         id="path3614"
         d="m 378.4328,171.02151 c 7.58311,9.70527 9.29251,17.94212 9.29987,25.75346"
         style="fill:none;stroke:#1c1400;stroke-width:1px;stroke-linecap:butt;stroke-linejoin:miter;stroke-opacity:1" />
      <path
         sodipodi:nodetypes="cc"
         id="path3616"
         d="m 462.84693,173.16763 c 4.29224,-0.71537 32.90719,24.32272 45.06855,24.32272"
         style="fill:none;stroke:#1c1400;stroke-width:1px;stroke-linecap:butt;stroke-linejoin:miter;stroke-opacity:1" />
      <path
         sodipodi:nodetypes="cc"
         id="path3659"
         d="m 141.08997,213.55335 c 14.70818,0.6108 22.83612,-17.14886 39.62115,-17.39466"
         style="fill:none;stroke:#1c1400;stroke-width:1px;stroke-linecap:butt;stroke-linejoin:miter;stroke-opacity:1" />
      <path
         sodipodi:nodetypes="cssssssssccssssssssssssssss"
         transform="translate(32.213446,93.939431)"
         id="path3929"
         d="m 293.36996,7.8352816 c -0.80027,0.8810356 -5.88003,3.3765414 -5.36385,4.4490234 0.68365,1.420443 7.2085,-1.141908 8.43417,-0.150563 0.74753,0.604614 0.626,1.860251 1.22814,2.60978 1.41667,1.763449 5.21956,3.53088 5.37307,4.144945 0.15352,0.614067 -1.99014,8.76743 0.76906,10.590789 2.52739,1.670171 10.9766,-4.997975 15.96424,-3.529032 1.00719,0.296634 1.3069,1.816483 2.30274,2.14923 4.58798,1.533012 10.05611,-3.600106 14.43055,-1.535164 2.43859,1.151129 3.4821,4.238547 4.45198,6.754724 6.41162,4.735379 19.9521,26.599681 8.95865,-0.553471 -0.55827,-3.781889 0.14038,-5.300174 -0.0547,-9.118066 -0.19445,-3.805558 4.29846,-9.97857 4.29846,-10.592636 0,-0.614066 3.1607,-6.5276946 1.22814,-8.750438 -0.53721,-0.6178737 -1.77933,-0.4605583 -2.45627,0 -3.45691,2.351915 -2.52296,8.427307 -5.06493,10.901515 -1.14207,1.111627 -1.58554,-1.881805 -3.07144,-2.45811 -1.76525,-0.68465 -4.1261,-1.081615 -5.68011,0 -1.20929,0.841682 -0.41147,3.191989 -1.53516,4.144945 -2.26561,1.921368 -5.79319,1.97027 -8.75044,1.688681 -1.64598,-0.15673 -2.95461,-1.933634 -4.6055,-1.842198 -2.49158,0.137997 -4.111,3.691826 -6.6012,3.530879 -3.95355,-0.255527 -6.08984,-5.214944 -9.67154,-6.908241 -1.24566,-0.588903 -2.88204,-0.257466 -3.99143,-1.074615 -2.38899,-1.759669 -1.94232,-6.5896058 -4.75901,-7.5223066 -0.67661,-0.2240493 -1.3551,0.4551284 -1.99571,0.7675823 -1.34091,0.6540263 -2.8348,1.1984041 -3.83791,2.3027469 z"
         style="fill:url(#linearGradient3987);fill-opacity:1;stroke:none" />
      <path
         sodipodi:nodetypes="cc"
         transform="translate(32.213446,93.939431)"
         id="path3939"
         d="M 308.56845,-3.3405984 C 304.70759,-16.398674 298.09177,-27.92622 277.42851,-31.64963"
         style="fill:none;stroke:#000000;stroke-width:0.40000001;stroke-linecap:butt;stroke-linejoin:miter;stroke-miterlimit:4;stroke-opacity:1;stroke-dasharray:none" />
      <path
         sodipodi:nodetypes="cc"
         transform="translate(32.213446,93.939431)"
         id="path3941"
         d="m 321.30751,-6.1715016 c 0.36595,-18.4273364 -0.60307,-36.3037594 -7.78498,-56.6180624"
         style="fill:none;stroke:#000000;stroke-width:0.40000001;stroke-linecap:butt;stroke-linejoin:miter;stroke-miterlimit:4;stroke-opacity:1;stroke-dasharray:none" />
      <path
         id="path3945"
         d="m 304.37058,59.956991 c -0.19718,-0.04912 -0.39747,0.08204 -0.37094,0.274697 0.0148,0.203212 -0.0255,0.470952 -0.22718,0.567451 -0.20495,0.148053 -0.42114,0.317575 -0.53196,0.528128 -0.007,0.218094 -0.22946,0.423563 -0.0965,0.631851 0.20489,0.07382 0.25897,0.316912 0.40304,0.388694 0.16795,0.114542 0.27232,0.292433 0.43243,0.403722 0.12793,0.152734 0.14611,0.420165 0.3876,0.460149 0.22068,-0.06203 0.46643,-0.108238 0.71606,-0.08162 0.23229,-0.02463 0.45265,0.02798 0.67636,0.03608 0.23632,-0.06301 0.18146,-0.364408 0.24906,-0.543819 0.0178,-0.196507 0.12403,-0.353915 0.25337,-0.491663 0.12009,-0.133771 0.26096,-0.243169 0.4011,-0.343007 0.15514,-0.06223 0.24986,-0.186171 0.41683,-0.258658 0.0889,-0.09152 0.16416,-0.161218 0.21473,-0.310829 0.10918,-0.02253 0.1595,-0.274356 0.27206,-0.362777 0.0758,-0.142683 0.2948,-0.34065 0.055,-0.385859 -0.17124,-0.06704 -0.38312,-1.09e-4 -0.55354,-0.130975 -0.24487,-0.01446 -0.44709,-0.124857 -0.66389,-0.224607 -0.25687,-0.04024 -0.52198,-0.06933 -0.77322,0.0082 -0.22766,-0.01029 -0.4558,-0.0017 -0.68379,-0.0045 -0.0962,-0.137433 -0.33344,-0.142327 -0.50204,-0.153655 l -0.0266,-0.002 -0.0479,-0.0051 1e-5,-4e-6 z"
         style="fill:#573800;fill-opacity:1;stroke:#000000;stroke-width:0.5;stroke-linecap:butt;stroke-linejoin:miter;stroke-miterlimit:4;stroke-opacity:1;stroke-dasharray:none" />
      <path
         id="path3949"
         d="m 341.15839,25.64624 c -0.1829,-0.154886 -0.41506,-0.06717 -0.61174,-0.08512 -0.16144,-0.01305 -0.33788,-0.04973 -0.40203,0.115593 -0.20332,0.07125 -0.005,0.450517 -0.27828,0.307094 -0.21289,0.04177 -0.38523,0.166339 -0.49602,0.342746 -0.0862,0.116161 -0.40465,0.235826 -0.12127,0.358331 0.22877,0.09569 0.43088,0.306779 0.69129,0.268421 0.1626,0.02449 0.3489,-0.02016 0.44139,-0.0067 0.25004,-0.04312 0.50324,0.03594 0.73386,0.14297 0.23579,0.03747 0.41017,0.222466 0.64409,0.263906 0.20039,0.07765 0.3807,0.204727 0.57444,0.300021 0.14759,0.09209 0.33123,0.141457 0.42636,0.293715 0.18933,0.20302 0.42288,0.359258 0.62732,0.545902 0.13943,0.115485 0.38391,0.439559 0.54371,0.234867 0.0579,-0.167429 0.0517,-0.337372 0.072,-0.516593 -0.004,-0.191838 0.1172,-0.376802 0.17431,-0.566571 0.0911,-0.190505 0.24807,-0.367043 0.28139,-0.575396 -0.15192,-0.154841 -0.38892,-0.221161 -0.57316,-0.342899 -0.17816,-0.05389 -0.39615,-0.104912 -0.58762,-0.07684 -0.0834,0.02489 -0.20325,0.03814 -0.18598,0.08435 -0.20231,0.0048 -0.39748,-0.110963 -0.5128,-0.263402 -0.0677,-0.151019 -0.20731,-0.341569 -0.39823,-0.408149 -0.19553,-0.04193 -0.33708,-0.03629 -0.51261,-0.13545 -0.19348,-0.02643 -0.37403,-0.108618 -0.50637,-0.257913 l -0.024,-0.02277 -10e-6,-5e-6 z"
         style="fill:#573800;fill-opacity:1;stroke:#000000;stroke-width:0.5;stroke-linecap:butt;stroke-linejoin:miter;stroke-miterlimit:4;stroke-opacity:1;stroke-dasharray:none" />
    </g>
  </g>
</svg>
